<?xml version="1.0" encoding="utf-8"?>
<!-- Generator: Adobe Illustrator 19.0.0, SVG Export Plug-In . SVG Version: 6.00 Build 0)  -->
<svg version="1.1" id="Layer_1" xmlns="http://www.w3.org/2000/svg" xmlns:xlink="http://www.w3.org/1999/xlink" x="0px" y="0px"
	 viewBox="0 0 72 82.3" style="enable-background:new 0 0 72 82.3;" xml:space="preserve">
<style type="text/css">
	.st0{fill:#CC0000;}
</style>
<g id="XMLID_2_">
	<path id="XMLID_16_" class="st0" d="M60.5,58.5c-1.1,0-2,0-2,0h-2c-1.1,0-2,1.1-2,2.5c0,1.4,0,2.5,0,2.5V65c0,0.4,0.4,0.8,1,1
		c2.1-2.3,3.9-4.8,5.6-7.4C60.8,58.5,60.6,58.5,60.5,58.5z"/>
	<path id="XMLID_17_" class="st0" d="M49.9,67.2c0-2.1-2.4-3.8-5.4-3.8H27.8c-3,0-5.4,1.8-5.4,4c0,1.3-0.9,2.5-2.3,3.2
		c4.3,3.8,9.3,6.8,14.8,8.9h0c6.2-2.1,11.8-5.4,16.5-9.6C50.5,69.2,49.9,68.3,49.9,67.2z"/>
	<path id="XMLID_18_" class="st0" d="M10.1,6.3C9.7,6.1,9.4,6,9,5.9L4.1,4v31.1c0,3.5,0.4,7,1.2,10.4V11.6C5.3,8.8,7.4,6.5,10.1,6.3
		z"/>
	<path id="XMLID_19_" class="st0" d="M27.8,14.4h16.7c3,0,5.4-1.9,5.4-4.3c0-0.2,0-0.4,0.1-0.6c-9.1,1.7-18.5,1.7-27.6,0
		c0.1,0.2,0.1,0.5,0.1,0.7C22.4,12.6,24.8,14.4,27.8,14.4z"/>
	<path id="XMLID_20_" class="st0" d="M16,42.4c-1,0-1.9,0-1.9,0h-2.2c-1.2,0-2.2,1.8-2.2,4.1c0,2.2,1,4.1,2.2,4.1s2.2,0,2.2,0H16
		c1,0,1.9-1.8,1.9-4.1C17.9,44.3,17,42.4,16,42.4z"/>
	<path id="XMLID_21_" class="st0" d="M17.9,65c0-0.9,0-1.6,0-1.6v-2.5c0-1.4-0.9-2.5-1.9-2.5c-1,0-1.9,0-1.9,0h-2.2
		c-0.5,0-0.9,0.3-1.2,0.7c1.5,2.5,3.2,4.9,5.2,7.1C17.1,66.1,17.9,65.6,17.9,65z"/>
	<path id="XMLID_22_" class="st0" d="M56.4,18.5c1.1,0,2,0,2,0h2c1.1,0,2-1.8,2-4.1c0-2.2-1.8-4.1-4.1-4.1c-2.2,0-4.1,0.9-4.1,2
		c0,1.1,0,2,0,2v2C54.4,17.6,55.3,18.5,56.4,18.5z"/>
	<path id="XMLID_23_" class="st0" d="M41.5,23.7h-11c-3,0-5.4,2.4-5.4,5.4v0.3c0,3,2.4,5.4,5.4,5.4h11c3,0,5.4-2.4,5.4-5.4v-0.3
		C46.9,26.1,44.5,23.7,41.5,23.7z"/>
	<path id="XMLID_24_" class="st0" d="M60.5,42.4c-1.1,0-2,0-2,0h-2c-1.1,0-2,1.8-2,4.1c0,2.2,0.9,4.1,2,4.1c1.1,0,2,0,2,0h2
		c1.1,0,2-1.8,2-4.1C62.5,44.3,61.6,42.4,60.5,42.4z"/>
	<path id="XMLID_25_" class="st0" d="M60.5,26.4c-1.1,0-2,0-2,0h-2c-1.1,0-2,1.8-2,4.1s0.9,4.1,2,4.1c1.1,0,2,0,2,0h2
		c1.1,0,2-1.8,2-4.1S61.6,26.4,60.5,26.4z"/>
	<path id="XMLID_26_" class="st0" d="M68.1,4l-4.9,1.8C63.1,5.9,63,6,62.8,6c2.4,0.5,4.2,2.7,4.2,5.2v32.2c0.8-3.4,1.2-7,1.2-10.6V4
		z"/>
	<path id="XMLID_27_" class="st0" d="M41.5,42.2h-11c-3,0-5.4,2.4-5.4,5.4v0.3c0,3,2.4,5.4,5.4,5.4h11c3,0,5.4-2.4,5.4-5.4v-0.3
		C46.9,44.6,44.5,42.2,41.5,42.2z"/>
	<path id="XMLID_28_" class="st0" d="M16,26.4c-1,0-1.9,0-1.9,0h-2.2c-1.2,0-2.2,1.8-2.2,4.1c0,2.2,1,4.1,2.2,4.1s2.2,0,2.2,0H16
		c1,0,1.9-1.8,1.9-4.1C17.9,28.2,17,26.4,16,26.4z"/>
	<path id="XMLID_29_" class="st0" d="M13.8,10.4c-2.2,0-4.1,1.8-4.1,4.1c0,2.2,1,4.1,2.2,4.1s2.2,0,2.2,0H16c1,0,1.9-0.9,1.9-2
		c0-1.1,0-2,0-2v-2C17.9,11.3,16.1,10.4,13.8,10.4z"/>
	<path id="XMLID_30_" class="st0" d="M17,6.2h-6.4c-0.2,0-0.4,0-0.5,0.1c4,1.4,8.1,2.6,12.2,3.3C21.9,7.7,19.7,6.2,17,6.2z"/>
	<path id="XMLID_32_" class="st0" d="M61.6,5.9h-6.4c-2.7,0-5,1.6-5.3,3.7c4.4-0.8,8.7-2,12.9-3.6C62.4,5.9,62,5.9,61.6,5.9z"/>
</g>
</svg>
